<svg width="37" height="36" viewBox="0 0 37 36" fill="none" xmlns="http://www.w3.org/2000/svg">
<g clip-path="url(#clip0_113_43)">
<path fill-rule="evenodd" clip-rule="evenodd" d="M18.3469 0.720001C8.42306 0.720001 0.400574 8.64 0.400574 18.4381C0.400574 26.2703 5.54086 32.9 12.6718 35.2465C13.5633 35.4229 13.8899 34.8653 13.8899 34.3962C13.8899 33.9854 13.8605 32.5775 13.8605 31.1105C8.86829 32.1667 7.8287 28.9984 7.8287 28.9984C7.02641 26.9449 5.83768 26.4172 5.83768 26.4172C4.20372 25.3318 5.9567 25.3318 5.9567 25.3318C7.76919 25.4491 8.72025 27.1505 8.72025 27.1505C10.3245 29.849 12.9095 29.0866 13.9494 28.6171C14.0978 27.473 14.5736 26.681 15.0787 26.2411C11.097 25.8304 6.90776 24.305 6.90776 17.4992C6.90776 15.5632 7.62041 13.9792 8.74964 12.7472C8.57147 12.3073 7.94735 10.4882 8.92817 8.05356C8.92817 8.05356 10.4435 7.58412 13.8602 9.87228C15.323 9.48444 16.8315 9.28714 18.3469 9.28548C19.8622 9.28548 21.4069 9.49104 22.8333 9.87228C26.2504 7.58412 27.7657 8.05356 27.7657 8.05356C28.7465 10.4882 28.122 12.3073 27.9439 12.7472C29.1029 13.9792 29.7861 15.5632 29.7861 17.4992C29.7861 24.305 25.5969 25.8008 21.5855 26.2411C22.2393 26.7984 22.8036 27.8543 22.8036 29.5265C22.8036 31.9025 22.7742 33.8094 22.7742 34.3958C22.7742 34.8653 23.1011 35.4229 23.9923 35.2469C31.1233 32.8997 36.2636 26.2703 36.2636 18.4381C36.2929 8.64 28.2411 0.720001 18.3469 0.720001Z" fill="#E7DEDC"/>
</g>
<defs>
<clipPath id="clip0_113_43">
<rect width="36" height="34.56" fill="white" transform="translate(0.400574 0.720001)"/>
</clipPath>
</defs>
</svg>
