<svg width="37" height="36" viewBox="0 0 37 36" fill="none" xmlns="http://www.w3.org/2000/svg">
<g clip-path="url(#clip0_113_49)">
<path fill-rule="evenodd" clip-rule="evenodd" d="M8.42148 0.315799C8.84229 0.280891 11.0071 0.273254 18.4093 0.273254H24.18C28.3388 0.28048 28.5755 0.314755 29.3655 0.429164L29.4113 0.435795C31.1207 0.682333 32.5552 1.36413 33.7282 2.48446C34.3854 3.1169 34.8381 3.73542 35.2458 4.56367C35.7427 5.57546 35.9868 6.5327 36.0986 7.95629C36.1226 8.26174 36.1336 13.1227 36.1336 17.9869C36.1336 22.8503 36.1235 27.7202 36.0995 28.0257C35.989 29.4266 35.7449 30.3921 35.2636 31.3848C34.3063 33.3592 32.5473 34.7992 30.4228 35.3474C29.6524 35.5465 28.9556 35.64 27.7556 35.6965C27.3275 35.7183 22.8494 35.7237 18.3714 35.7237C13.8933 35.7237 9.418 35.7101 8.97892 35.691C7.94259 35.6419 7.13534 35.5383 6.40445 35.3501C4.29361 34.8047 2.50185 33.3429 1.56369 31.3957C1.0728 30.3784 0.840987 29.4485 0.718263 27.9703C0.68281 27.5503 0.674628 25.3877 0.674628 17.9915C0.674628 17.0854 0.674268 16.263 0.67394 15.5155C0.673366 14.2075 0.672893 13.1286 0.674628 12.2303C0.681599 8.06692 0.715458 7.83333 0.83063 7.03878C0.832604 7.02517 0.834601 7.01138 0.836623 6.99741C1.08343 5.28965 1.76523 3.85296 2.8902 2.68518C3.50791 2.04484 4.1338 1.58803 4.92741 1.19395C5.9572 0.681242 6.90244 0.442067 8.42148 0.315799ZM13.0034 4.98856C14.3998 4.92502 14.8459 4.90948 18.4011 4.90948H18.397C21.9533 4.90948 22.3978 4.92502 23.7941 4.98856C25.1877 5.05238 26.1395 5.27301 26.974 5.59673C27.8358 5.93081 28.564 6.37807 29.2921 7.10623C30.0203 7.83384 30.4675 8.56418 30.803 9.42516C31.1248 10.2575 31.3457 11.2087 31.4112 12.6023C31.4739 13.9987 31.4902 14.4448 31.4902 18C31.4902 21.5552 31.4739 22.0002 31.4112 23.3966C31.3457 24.7896 31.1248 25.7411 30.803 26.5737C30.4675 27.4344 30.0203 28.1648 29.2921 28.8924C28.5648 29.6205 27.8355 30.0689 26.9748 30.4032C26.1419 30.727 25.1896 30.9476 23.796 31.0114C22.3997 31.075 21.9549 31.0905 18.3995 31.0905C14.8446 31.0905 14.3987 31.075 13.0023 31.0114C11.609 30.9476 10.6575 30.727 9.82462 30.4032C8.9642 30.0689 8.23385 29.6205 7.50651 28.8924C6.77863 28.1648 6.33137 27.4344 5.99674 26.5735C5.6733 25.7411 5.45267 24.7899 5.38858 23.3963C5.32531 22 5.30949 21.5552 5.30949 18C5.30949 14.4448 5.32585 13.9984 5.3883 12.6021C5.45103 11.209 5.67193 10.2575 5.99647 9.42488C6.33191 8.56418 6.77917 7.83384 7.50733 7.10623C8.23494 6.37834 8.96529 5.93108 9.82626 5.59673C10.6586 5.27301 11.6098 5.05238 13.0034 4.98856ZM17.9648 7.26837C17.7001 7.26825 17.4548 7.26814 17.2268 7.2685V7.26522C14.787 7.26795 14.319 7.28431 13.1114 7.33886C11.8351 7.39749 11.1421 7.61021 10.6807 7.79021C10.0698 8.02802 9.63345 8.31164 9.17528 8.76981C8.71711 9.22798 8.43294 9.66433 8.19567 10.2752C8.0165 10.7367 7.80323 11.4294 7.74487 12.7057C7.68214 14.0857 7.6696 14.498 7.6696 17.9937C7.6696 21.4894 7.68214 21.904 7.74487 23.2839C7.80296 24.5602 8.0165 25.253 8.19567 25.7138C8.43348 26.325 8.71711 26.7603 9.17528 27.2184C9.63345 27.6766 10.0698 27.9602 10.6807 28.1975C11.1424 28.3767 11.8351 28.5899 13.1114 28.6488C14.4914 28.7116 14.9057 28.7252 18.4011 28.7252C21.8963 28.7252 22.3108 28.7116 23.6908 28.6488C24.9671 28.5905 25.6603 28.3778 26.1212 28.1978C26.7324 27.9605 27.1674 27.6769 27.6255 27.2187C28.0837 26.7608 28.3679 26.3258 28.6051 25.7149C28.7843 25.254 28.9976 24.5613 29.056 23.285C29.1187 21.9051 29.1323 21.4905 29.1323 17.997C29.1323 14.5035 29.1187 14.0889 29.056 12.709C28.9979 11.4326 28.7843 10.7399 28.6051 10.279C28.3673 9.66815 28.0837 9.2318 27.6255 8.77363C27.1676 8.31546 26.7321 8.03184 26.1212 7.79457C25.6598 7.61539 24.9671 7.40213 23.6908 7.34377C22.3105 7.28104 21.8963 7.2685 18.4011 7.2685C18.25 7.2685 18.1047 7.26843 17.9648 7.26837ZM23.8178 11.0124C23.8178 10.1449 24.5215 9.44207 25.3887 9.44207V9.44152C26.2559 9.44152 26.9596 10.1451 26.9596 11.0124C26.9596 11.8796 26.2559 12.5832 25.3887 12.5832C24.5215 12.5832 23.8178 11.8796 23.8178 11.0124ZM11.6786 18C11.6786 14.2875 14.6886 11.2775 18.4011 11.2775C22.1136 11.2775 25.1225 14.2875 25.1225 18C25.1225 21.7125 22.1136 24.7211 18.4011 24.7211C14.6886 24.7211 11.6786 21.7125 11.6786 18ZM22.7646 18C22.7646 15.59 20.8108 13.6365 18.4011 13.6365C15.9911 13.6365 14.0376 15.59 14.0376 18C14.0376 20.4097 15.9911 22.3635 18.4011 22.3635C20.8108 22.3635 22.7646 20.4097 22.7646 18Z" fill="#E7DEDC"/>
</g>
<defs>
<clipPath id="clip0_113_49">
<rect width="36" height="35.9989" fill="white" transform="translate(0.400574 0.000610352)"/>
</clipPath>
</defs>
</svg>
