<svg width="37" height="36" viewBox="0 0 37 36" fill="none" xmlns="http://www.w3.org/2000/svg">
<g clip-path="url(#clip0_113_78)">
<path fill-rule="evenodd" clip-rule="evenodd" d="M18.6695 35.1C28.3621 35.1 36.2195 27.2426 36.2195 17.55C36.2195 7.8574 28.3621 0 18.6695 0C8.97687 0 1.11947 7.8574 1.11947 17.55C1.11947 27.2426 8.97687 35.1 18.6695 35.1ZM10.1047 13.665L18.899 19.276L27.6933 13.665V19.276H29.8919V11.4206C29.8919 10.8034 29.6766 10.2751 29.2461 9.83556C28.8155 9.39604 28.2979 9.17627 27.6933 9.17627H10.1047C9.50013 9.17627 8.98255 9.39604 8.552 9.83556C8.12144 10.2751 7.90617 10.8034 7.90617 11.4206V24.8869C7.90617 25.5041 8.12144 26.0325 8.552 26.472C8.98255 26.9115 9.50013 27.1313 10.1047 27.1313H19.9983V24.8869H10.1047V19.3601V19.276V13.665ZM27.6933 11.4206L18.899 17.0316L10.1047 11.4206H27.6933ZM25.055 28.9268L26.594 30.4978L30.9912 26.0091L26.594 21.5203L25.0275 23.0914L26.7864 24.8869H22.1969V27.1313H26.7864L25.055 28.9268Z" fill="#E7DEDC"/>
</g>
<defs>
<clipPath id="clip0_113_78">
<rect width="36" height="36" fill="white" transform="translate(0.400574)"/>
</clipPath>
</defs>
</svg>
